<svg version="1.1" id="Layer_1" xmlns="http://www.w3.org/2000/svg" xmlns:xlink="http://www.w3.org/1999/xlink" x="0px" y="0px"
	 width="100%" viewBox="0 0 1024 1024" enable-background="new 0 0 1024 1024" xml:space="preserve">
<path fill="#000000" opacity="1.000000" stroke="none" 
	d="
M437.346680,751.667603 
	C450.965973,751.672241 464.131195,751.642090 477.296173,751.689697 
	C500.771973,751.774597 520.563538,769.784912 522.835571,793.100037 
	C522.880798,793.563843 522.672180,794.052429 522.587585,794.500000 
	C520.716248,795.794800 518.653442,795.317200 516.703186,795.317810 
	C452.377380,795.338623 388.050171,795.573975 323.726471,795.202454 
	C298.347992,795.055847 276.277344,785.765869 258.444885,767.356750 
	C256.351532,765.195740 254.829361,764.862732 252.051041,766.121399 
	C204.457962,787.681946 153.921997,759.461975 146.613586,707.262024 
	C143.442673,684.613892 147.558105,663.744629 163.086197,646.199890 
	C173.036606,634.957214 185.706436,630.844971 200.538345,633.729980 
	C211.639267,635.889282 219.594940,644.856201 221.971771,657.912109 
	C223.823486,668.083618 218.457504,680.297363 209.783051,685.666138 
	C208.926941,686.195923 208.060959,686.623657 207.038879,686.330933 
	C206.190521,684.729492 206.967682,683.332275 207.234421,681.894104 
	C207.909195,678.255920 208.017136,674.630188 206.923950,671.031067 
	C205.110550,665.060669 200.510971,660.763428 195.547028,660.449097 
	C190.520401,660.130920 185.543961,663.796570 183.071121,669.639038 
	C173.762100,691.632996 186.399109,714.747620 209.767715,718.344421 
	C216.289291,719.348267 222.283356,717.355774 228.041779,714.504211 
	C229.923431,713.572388 230.347061,712.219482 230.049240,710.014465 
	C224.646454,670.015869 235.241470,633.774902 256.667938,600.357117 
	C302.257568,529.253296 348.080719,458.299164 393.820648,387.291718 
	C400.585999,376.789093 407.448242,366.348846 414.196289,355.835236 
	C415.513306,353.783295 417.200134,351.830750 417.285278,349.012634 
	C416.754639,348.641296 416.276123,348.140503 415.691986,347.921600 
	C393.264465,339.518097 381.895142,321.877197 375.950287,299.921448 
	C372.072205,285.598816 370.174774,270.920624 369.190979,256.118164 
	C368.945953,252.431442 370.185150,251.497635 373.852295,252.131424 
	C390.741974,255.050522 407.489716,258.606689 424.107635,262.782257 
	C440.861572,266.992065 454.077393,276.324524 463.278595,290.915771 
	C466.096222,295.383942 468.484436,295.985138 473.246338,293.695465 
	C499.051575,281.287323 526.275574,276.892700 554.823120,279.467804 
	C589.425476,282.589142 620.280945,295.292480 648.479492,315.010681 
	C669.671753,329.829651 691.068481,344.222260 715.233093,353.944611 
	C738.959961,363.490845 763.539185,367.800232 789.031677,365.517426 
	C801.637756,364.388580 813.976562,361.447418 825.884705,356.963837 
	C828.476257,355.988098 831.085999,354.941772 834.763428,355.418579 
	C832.376953,361.501801 827.174805,363.287231 822.595581,365.368713 
	C820.822144,366.174835 819.409302,366.928741 818.423523,368.451141 
	C807.638611,385.104614 797.165405,401.958710 791.004028,420.986237 
	C787.558167,431.627625 786.180359,442.425110 791.895081,452.946625 
	C794.466553,457.680878 798.501160,460.302490 803.572144,461.558807 
	C805.220886,461.967255 806.918335,462.107300 808.355713,460.950043 
	C812.225647,457.834473 816.873108,456.269257 821.506470,455.092102 
	C830.803955,452.729950 838.848511,446.833893 848.864563,446.281769 
	C854.127258,445.991699 854.868286,441.959381 851.994995,437.390594 
	C845.837402,427.599335 844.818481,417.039520 849.283691,406.354492 
	C851.919434,400.047119 857.274780,399.603699 861.034180,405.445221 
	C866.721497,414.282379 867.604065,424.084625 865.043701,434.207336 
	C864.723083,435.475098 863.864990,436.609894 864.213257,438.410583 
	C867.531250,438.213287 870.964844,439.192444 874.276855,438.007111 
	C878.472595,436.505493 879.291992,438.564789 879.161438,442.102783 
	C878.832397,451.024292 871.868713,459.764648 862.204834,462.839294 
	C835.395020,471.369049 808.528870,479.722229 781.722595,488.263184 
	C756.350403,496.347168 730.768250,503.893219 706.260315,514.407715 
	C686.879700,522.722412 668.735718,533.141235 653.495239,548.105591 
	C643.604736,557.816833 636.130066,569.099121 630.174438,581.520325 
	C617.243347,608.489624 602.775208,634.601196 582.849304,657.080811 
	C576.750977,663.960693 575.026245,669.689392 577.010803,678.880188 
	C582.018372,702.070862 585.375122,725.619507 589.309143,749.038818 
	C589.957947,752.901062 592.088928,755.611511 594.787659,758.249329 
	C602.296936,765.589355 609.994385,772.860596 612.660217,783.624817 
	C613.219482,785.883118 613.756958,788.160217 614.083557,790.460022 
	C614.862061,795.942139 610.111938,802.234558 604.680847,803.226074 
	C602.005188,803.714600 601.666443,801.701599 601.056274,800.046326 
	C599.782104,796.589722 598.218628,793.281067 596.174866,790.222900 
	C594.794983,788.157959 593.256653,786.198975 591.269531,784.334534 
	C592.195251,789.767212 593.116455,795.132874 593.838440,800.525208 
	C594.461975,805.181885 593.051575,807.177795 588.426208,807.933655 
	C576.874512,809.821411 565.824280,808.348999 555.359314,803.317688 
	C547.610352,799.592224 543.566101,792.821106 541.773254,784.604004 
	C539.598877,774.638245 539.616699,774.517639 529.720215,774.219238 
	C525.617798,774.095520 523.595642,772.690369 523.664062,768.310730 
	C523.869690,755.156128 520.908875,742.662598 516.127441,730.408875 
	C508.141266,709.942322 500.343597,689.394653 493.478210,668.510742 
	C493.041260,667.181580 493.015015,665.492554 491.157196,664.469727 
	C489.152496,669.926880 491.182556,675.120972 491.874084,680.223267 
	C493.662659,693.420105 497.178070,706.272705 500.576172,719.127747 
	C501.230591,721.603577 501.187042,723.222046 498.564362,724.332336 
	C484.426910,730.317505 469.971344,735.292969 454.891174,738.316284 
	C453.949890,738.505005 452.937897,738.340881 451.987793,738.340881 
	C450.764404,737.032532 451.560059,735.722656 451.958496,734.551147 
	C454.976501,725.676697 457.171295,716.548584 457.404785,707.226624 
	C458.295135,671.676575 440.473053,638.222595 401.376129,626.984436 
	C399.541443,626.457092 397.536743,626.521240 395.327698,626.725037 
	C418.741882,637.785339 434.311401,655.412659 441.411896,680.250549 
	C448.525299,705.133850 443.762848,728.261597 430.591614,749.803406 
	C432.509308,752.327271 434.844391,751.426941 437.346680,751.667603 
M544.756409,360.525116 
	C543.789856,355.357086 540.764099,353.769836 535.554382,354.144562 
	C528.763977,354.632965 521.908508,354.162354 515.082214,354.227020 
	C510.097076,354.274231 509.577576,355.085785 510.973755,359.916473 
	C517.161377,381.325378 536.275269,393.795135 558.114319,389.364105 
	C573.694580,386.202972 584.576172,376.559326 589.385437,360.955475 
	C590.039246,358.834015 590.867676,356.307251 587.967041,354.831329 
	C583.250427,352.431244 576.829468,354.846222 574.913574,359.748505 
	C571.569885,368.304108 565.749329,372.405273 557.908630,371.255188 
	C551.849609,370.366425 547.770691,366.585449 544.756409,360.525116 
M699.956482,412.381897 
	C696.392212,422.786224 695.677429,433.501892 696.187927,444.407349 
	C696.508362,451.251526 698.659302,457.396606 701.989197,463.286865 
	C703.824036,466.532440 706.237183,467.962738 710.060303,467.904572 
	C721.889282,467.724579 733.722778,467.854401 745.554260,467.810211 
	C746.591064,467.806335 747.921143,468.332855 748.769714,466.518036 
	C727.271423,449.847656 709.796997,430.217041 705.427185,400.664642 
	C702.171082,404.963837 701.358398,408.377563 699.956482,412.381897 
M633.957825,358.802704 
	C633.066589,354.013275 629.329590,354.355164 625.841064,354.359009 
	C622.513306,354.362701 620.608582,355.966736 620.328979,359.495270 
	C623.074280,360.796051 627.803467,359.477173 627.792603,363.766052 
	C627.783813,367.217834 624.177246,363.827972 622.583984,365.093323 
	C625.697998,373.065979 635.608093,379.246826 644.345032,378.954926 
	C647.200562,378.859528 649.510071,377.827271 651.552490,376.023590 
	C653.306458,374.474579 653.029907,372.424561 652.582031,370.448639 
	C652.167114,368.618439 650.631042,368.360046 649.078735,368.291779 
	C642.529541,368.003754 637.888977,364.555511 633.957825,358.802704 
z"/>
<path fill="#000000" opacity="1.000000" stroke="none" 
	d="
M655.390991,664.732727 
	C659.965332,687.612549 664.695068,710.031311 668.889343,732.549927 
	C670.098999,739.044617 673.043762,743.719299 677.943604,747.940308 
	C688.007385,756.609802 694.301331,767.528381 695.553284,780.993103 
	C695.949585,785.255554 688.982605,791.803650 684.732971,791.312012 
	C682.688049,791.075439 682.770996,789.282593 682.255981,787.988281 
	C679.299561,780.558350 677.096802,777.047974 672.748169,773.258667 
	C673.569641,778.865723 674.327148,784.178894 675.132629,789.484741 
	C675.658020,792.945068 674.835815,795.066589 670.832397,795.754944 
	C658.801941,797.823792 647.276062,796.539246 636.365967,791.064209 
	C628.175476,786.953918 623.471497,779.821777 622.158508,771.054993 
	C621.150330,764.322815 617.944458,761.376099 611.493835,761.444153 
	C607.993164,761.481018 606.922363,759.506226 606.698853,756.434082 
	C604.941589,732.277710 598.868103,708.937988 593.019104,685.578369 
	C589.066284,669.791443 588.916748,669.919800 599.045044,657.120850 
	C613.880920,638.372925 626.156494,618.012329 636.712219,596.587097 
	C637.562195,594.861816 637.948792,592.760315 640.766968,591.234680 
	C645.670532,615.818726 650.506592,640.064209 655.390991,664.732727 
z"/>
<path fill="#000000" opacity="1.000000" stroke="none" 
	d="
M527.866089,266.149994 
	C512.546570,266.436737 498.212952,269.927521 483.445160,273.731873 
	C483.181549,266.721283 485.198242,260.801208 487.374756,254.965836 
	C492.742401,240.575058 501.625458,228.795074 513.897156,219.516739 
	C517.346313,216.908905 519.315613,217.486725 520.945984,221.438858 
	C526.150879,234.055954 530.952332,246.780960 533.156067,260.338257 
	C533.785950,264.213501 532.812317,266.587463 527.866089,266.149994 
z"/>
<path fill="#000000" opacity="1.000000" stroke="none" 
	d="
M827.409058,402.480347 
	C834.701782,410.634003 831.856140,419.252502 829.326172,427.725891 
	C828.284851,431.213257 826.550659,434.513489 824.031006,437.260681 
	C819.524841,442.173767 813.491333,441.261383 810.707153,435.280182 
	C806.869568,427.035919 811.514526,408.480011 818.823364,403.025787 
	C821.394226,401.107330 824.140503,400.244202 827.409058,402.480347 
z"/>
<path fill="#000000" opacity="1.000000" stroke="none" 
	d="
M864.597473,391.698151 
	C863.660461,387.922668 860.361511,384.607391 864.785400,380.041779 
	C869.011292,387.912872 872.483459,395.208130 873.061523,403.901123 
	C867.490112,403.097015 865.749451,400.427765 864.597473,391.698151 
z"/>
</svg>