<svg version="1.1" id="Layer_1" xmlns="http://www.w3.org/2000/svg" xmlns:xlink="http://www.w3.org/1999/xlink" x="0px" y="0px"
	 width="100%" viewBox="0 0 678 674" enable-background="new 0 0 678 674" xml:space="preserve">
<path fill="#E7E9EE" opacity="1.000000" stroke="none" 
	d="
M1.000003,621.000000 
	C1.000000,434.307495 1.000000,247.615005 1.349715,60.394493 
	C2.707027,58.061104 3.640338,56.208710 4.744443,54.464428 
	C5.724199,52.916595 6.893608,51.488804 7.985164,50.475761 
	C7.986503,244.627365 7.981976,438.311249 7.623806,631.924927 
	C6.477167,630.332031 5.742301,628.775452 4.877326,627.294800 
	C3.634575,625.167480 2.297067,623.095581 1.000003,621.000000 
z"/>
<path fill="#E7E8ED" opacity="1.000000" stroke="none" 
	d="
M679.000000,58.999992 
	C679.000000,247.025833 679.000000,435.051666 678.670166,623.595459 
	C676.901184,625.073425 675.462158,626.033569 674.016113,626.525696 
	C674.012756,436.041290 674.016479,246.024887 674.349731,56.064560 
	C676.119507,57.080418 677.559753,58.040203 679.000000,58.999992 
z"/>
<path fill="#EAEBF0" opacity="1.000000" stroke="none" 
	d="
M59.000000,0.999999 
	C246.025833,1.000000 433.051666,1.000000 620.596497,1.334225 
	C622.408691,3.106414 623.701904,4.544377 624.527039,5.988025 
	C434.374084,5.989778 244.689194,5.985848 55.067307,5.645602 
	C56.420200,3.872857 57.710098,2.436428 59.000000,0.999999 
z"/>
<path fill="#E3E6EA" opacity="1.000000" stroke="none" 
	d="
M634.000000,675.000000 
	C439.640839,675.000000 245.281677,675.000000 50.461220,674.628235 
	C50.003811,673.512939 50.007698,672.769409 50.478928,672.018982 
	C245.293594,672.016968 439.640900,672.021790 633.991699,672.398315 
	C633.996765,673.513367 633.998413,674.256653 634.000000,675.000000 
z"/>
<path fill="#EDEEF3" opacity="1.000000" stroke="none" 
	d="
M58.531342,0.999999 
	C57.710098,2.436428 56.420200,3.872857 54.598206,5.652937 
	C40.302181,5.997175 26.536791,6.107353 12.775275,5.925159 
	C9.104795,5.876565 7.866683,6.951961 7.921726,10.707454 
	C8.113693,23.805111 7.985690,36.907459 7.979299,50.008026 
	C6.893608,51.488804 5.724199,52.916595 4.744443,54.464428 
	C3.640338,56.208710 2.707027,58.061104 1.349715,59.933235 
	C1.000000,40.407158 1.000000,20.814316 1.000000,1.000000 
	C20.020321,1.000000 39.041504,1.000000 58.531342,0.999999 
z"/>
<path fill="#EDEEF3" opacity="1.000000" stroke="none" 
	d="
M624.995117,5.982338 
	C623.701904,4.544377 622.408691,3.106414 621.057739,1.334225 
	C640.260132,1.000000 659.520264,1.000000 679.000000,1.000000 
	C679.000000,20.020330 679.000000,39.041508 679.000000,58.531334 
	C677.559753,58.040203 676.119507,57.080418 674.340820,55.595016 
	C674.002136,40.304356 673.898376,25.538073 674.075012,10.775145 
	C674.118958,7.101404 673.042847,5.875906 669.289246,5.921975 
	C654.526489,6.103158 639.760132,5.987680 624.995117,5.982338 
z"/>
<path fill="#EBECF1" opacity="1.000000" stroke="none" 
	d="
M50.011585,672.025879 
	C50.007698,672.769409 50.003811,673.512939 49.999962,674.628235 
	C33.736351,675.000000 17.472706,675.000000 1.000000,675.000000 
	C1.000000,657.312988 1.000000,639.625122 1.000003,621.468628 
	C2.297067,623.095581 3.634575,625.167480 4.877326,627.294800 
	C5.742301,628.775452 6.477167,630.332031 7.632973,632.394043 
	C7.996507,644.370300 8.126000,655.809387 7.923728,667.242676 
	C7.858461,670.931946 8.983256,672.136597 12.718910,672.078369 
	C25.147057,671.884705 37.580299,672.017944 50.011585,672.025879 
z"/>
<path fill="#EBECF1" opacity="1.000000" stroke="none" 
	d="
M634.468689,675.000000 
	C633.998413,674.256653 633.996765,673.513367 634.461548,672.386841 
	C646.367126,672.003113 657.808472,671.873596 669.244019,672.076477 
	C672.936707,672.141968 674.130066,671.010925 674.078186,667.278137 
	C673.891602,653.852356 674.016174,640.422180 674.023132,626.993713 
	C675.462158,626.033569 676.901184,625.073425 678.670166,624.056641 
	C679.000000,640.922180 679.000000,657.844299 679.000000,675.000000 
	C664.313293,675.000000 649.625305,675.000000 634.468689,675.000000 
z"/>
<path fill="#FFFFFF" opacity="1.000000" stroke="none" 
	d="
M674.016113,626.525696 
	C674.016174,640.422180 673.891602,653.852356 674.078186,667.278137 
	C674.130066,671.010925 672.936707,672.141968 669.244019,672.076477 
	C657.808472,671.873596 646.367126,672.003113 634.458130,672.015137 
	C439.640900,672.021790 245.293594,672.016968 50.478928,672.018982 
	C37.580299,672.017944 25.147057,671.884705 12.718910,672.078369 
	C8.983256,672.136597 7.858461,670.931946 7.923728,667.242676 
	C8.126000,655.809387 7.996507,644.370300 7.986616,632.464233 
	C7.981976,438.311249 7.986503,244.627365 7.985164,50.475761 
	C7.985690,36.907459 8.113693,23.805111 7.921726,10.707454 
	C7.866683,6.951961 9.104795,5.876565 12.775275,5.925159 
	C26.536791,6.107353 40.302181,5.997175 54.535217,5.989253 
	C244.689194,5.985848 434.374084,5.989778 624.527039,5.988021 
	C639.760132,5.987680 654.526489,6.103158 669.289246,5.921975 
	C673.042847,5.875906 674.118958,7.101404 674.075012,10.775145 
	C673.898376,25.538073 674.002136,40.304356 674.011230,55.538940 
	C674.016479,246.024887 674.012756,436.041290 674.016113,626.525696 
M171.003159,384.493713 
	C144.780762,398.741974 126.283241,431.640656 127.556778,453.198273 
	C127.887611,453.198273 128.235947,453.269836 128.543564,453.188080 
	C155.634491,445.988647 182.820816,439.121124 209.762192,431.399078 
	C220.651917,428.277802 230.464523,422.305664 238.785843,414.398621 
	C244.392441,409.071106 246.146912,401.062927 242.754028,395.853577 
	C236.165634,385.737915 227.220581,378.611786 215.170975,376.064575 
	C199.583786,372.769531 185.226089,376.418518 171.003159,384.493713 
M199.613815,507.002625 
	C205.234146,506.669861 210.912262,506.736359 216.464432,505.932739 
	C236.611893,503.016754 257.890778,490.029541 260.032135,462.684967 
	C260.572815,455.780151 257.718292,450.562775 251.031815,448.346588 
	C239.039047,444.371704 226.481140,444.609558 214.537247,447.039337 
	C196.351288,450.738922 178.544617,456.308868 160.586761,461.121399 
	C150.862289,463.727509 141.158279,466.410004 130.679184,469.266846 
	C148.225128,492.260071 170.528778,504.844147 199.613815,507.002625 
M527.788025,229.332703 
	C531.078613,228.196777 534.593140,227.472443 537.609192,225.831787 
	C542.560974,223.138138 545.817505,219.119675 544.970032,212.892517 
	C543.451843,201.736679 538.805542,192.261185 529.923828,185.160309 
	C518.573303,176.085556 505.442871,173.530869 491.146545,173.882919 
	C465.679047,174.510117 445.571167,185.661407 428.970062,204.105881 
	C425.763092,207.668884 423.383179,211.976242 420.365234,216.308441 
	C440.672180,219.930695 459.888855,223.424347 479.131165,226.770355 
	C494.962341,229.523209 510.752930,233.330154 527.788025,229.332703 
M511.143433,249.324707 
	C501.518799,246.966797 491.969604,244.219528 482.252930,242.336731 
	C465.060120,239.005325 447.773315,236.153625 430.507477,233.208771 
	C426.530365,232.530457 422.479034,232.287354 417.624298,231.751526 
	C426.345245,265.661255 445.595184,288.592621 478.483429,298.237610 
	C497.304138,303.757080 514.774658,300.676727 528.416748,284.867859 
	C538.215454,273.512817 537.324097,265.065796 524.932312,256.829529 
	C520.798157,254.081757 516.218750,252.003830 511.143433,249.324707 
z"/>
<path fill="#81F7F8" opacity="1.000000" stroke="none" 
	d="
M171.329025,384.319519 
	C185.226089,376.418518 199.583786,372.769531 215.170975,376.064575 
	C227.220581,378.611786 236.165634,385.737915 242.754028,395.853577 
	C246.146912,401.062927 244.392441,409.071106 238.785843,414.398621 
	C230.464523,422.305664 220.651917,428.277802 209.762192,431.399078 
	C182.820816,439.121124 155.634491,445.988647 128.543564,453.188080 
	C128.235947,453.269836 127.887611,453.198273 127.556778,453.198273 
	C126.283241,431.640656 144.780762,398.741974 171.329025,384.319519 
z"/>
<path fill="#81F7F8" opacity="1.000000" stroke="none" 
	d="
M199.134705,507.002625 
	C170.528778,504.844147 148.225128,492.260071 130.679184,469.266846 
	C141.158279,466.410004 150.862289,463.727509 160.586761,461.121399 
	C178.544617,456.308868 196.351288,450.738922 214.537247,447.039337 
	C226.481140,444.609558 239.039047,444.371704 251.031815,448.346588 
	C257.718292,450.562775 260.572815,455.780151 260.032135,462.684967 
	C257.890778,490.029541 236.611893,503.016754 216.464432,505.932739 
	C210.912262,506.736359 205.234146,506.669861 199.134705,507.002625 
z"/>
<path fill="#81F7F8" opacity="1.000000" stroke="none" 
	d="
M527.380371,229.443787 
	C510.752930,233.330154 494.962341,229.523209 479.131165,226.770355 
	C459.888855,223.424347 440.672180,219.930695 420.365234,216.308441 
	C423.383179,211.976242 425.763092,207.668884 428.970062,204.105881 
	C445.571167,185.661407 465.679047,174.510117 491.146545,173.882919 
	C505.442871,173.530869 518.573303,176.085556 529.923828,185.160309 
	C538.805542,192.261185 543.451843,201.736679 544.970032,212.892517 
	C545.817505,219.119675 542.560974,223.138138 537.609192,225.831787 
	C534.593140,227.472443 531.078613,228.196777 527.380371,229.443787 
z"/>
<path fill="#81F7F8" opacity="1.000000" stroke="none" 
	d="
M511.493164,249.472198 
	C516.218750,252.003830 520.798157,254.081757 524.932312,256.829529 
	C537.324097,265.065796 538.215454,273.512817 528.416748,284.867859 
	C514.774658,300.676727 497.304138,303.757080 478.483429,298.237610 
	C445.595184,288.592621 426.345245,265.661255 417.624298,231.751526 
	C422.479034,232.287354 426.530365,232.530457 430.507477,233.208771 
	C447.773315,236.153625 465.060120,239.005325 482.252930,242.336731 
	C491.969604,244.219528 501.518799,246.966797 511.493164,249.472198 
z"/>
</svg>